<svg xmlns="http://www.w3.org/2000/svg" version="1.1" xmlns:xlink="http://www.w3.org/1999/xlink" xmlns:svgjs="http://svgjs.dev/svgjs" width="1000" height="623" viewBox="0 0 1000 623"><g transform="matrix(1,0,0,1,-0.6060606060606233,0.2522267206477409)"><svg viewBox="0 0 396 247" data-background-color="#ffffff" preserveAspectRatio="xMidYMid meet" height="623" width="1000" xmlns="http://www.w3.org/2000/svg" xmlns:xlink="http://www.w3.org/1999/xlink"><g id="tight-bounds" transform="matrix(1,0,0,1,0.2400000000000091,-0.09999999999999432)"><svg viewBox="0 0 395.52 247.2" height="247.2" width="395.52"><g><svg></svg></g><g><svg viewBox="0 0 395.52 247.2" height="247.2" width="395.52"><g><path d="M55.039 247.2l26.403-45.732 232.636 0 26.403 45.732zM197.76 0l26.403 45.732-52.806 0z" fill="#ff5858" fill-rule="nonzero" stroke="none" stroke-width="1" stroke-linecap="butt" stroke-linejoin="miter" stroke-miterlimit="10" stroke-dasharray="" stroke-dashoffset="0" font-family="none" font-weight="none" font-size="none" text-anchor="none" style="mix-blend-mode: normal" data-fill-palette-color="tertiary"></path></g><g transform="matrix(1,0,0,1,87.13315317609768,67.97999999999999)"><svg viewBox="0 0 221.25369364780462 111.24" height="111.24" width="221.25369364780462"><g><svg viewBox="0 0 222.35996211604362 111.79619999999998" height="111.24" width="221.25369364780462"><g><rect width="10.031737999679999" height="111.79619999999998" x="87.29949351272725" y="0" fill="#ff5858" opacity="1" stroke-width="0" stroke="transparent" fill-opacity="1" class="rect-i$-0" data-fill-palette-color="primary" rx="1%" id="i$-0" data-palette-color="#ff5858"></rect></g><g transform="matrix(1,0,0,1,123.59232575240725,0.2780999999999949)"><svg viewBox="0 0 98.76763636363636 111.24" height="111.24" width="98.76763636363636"><g id="textblocktransform"><svg viewBox="0 0 98.76763636363636 111.24" height="111.24" width="98.76763636363636" id="textblock"><g><svg viewBox="0 0 98.76763636363636 111.24" height="111.24" width="98.76763636363636"><g transform="matrix(1,0,0,1,0,0)"><svg width="98.76763636363636" viewBox="1 -33 29.3 33" height="111.24" data-palette-color="#ff5858"><path d="M23.55 0L7.8 0 7.8-0.5 9.85-1Q11.9-1.45 11.9-3.5L11.9-3.5 11.9-32 7.65-32Q5.8-32 5-31.03 4.2-30.05 3.3-28.35L3.3-28.35 1.5-24.85 1-24.85 1.25-33 30.1-33 30.3-24.85 29.8-24.85 28-28.35Q27.15-30.05 26.35-31.03 25.55-32 23.7-32L23.7-32 19.45-32 19.45-3.5Q19.45-1.45 21.5-1L21.5-1 23.55-0.5 23.55 0Z" opacity="1" transform="matrix(1,0,0,1,0,0)" fill="#ff5858" class="undefined-text-0" data-fill-palette-color="primary" id="text-0"></path></svg></g></svg></g></svg></g></svg></g><g transform="matrix(1,0,0,1,0,27.97015316295025)"><svg viewBox="0 0 61.03839927272726 55.855893674099484" height="55.855893674099484" width="61.03839927272726"><g><svg xmlns:x="http://ns.adobe.com/Extensibility/1.0/" xmlns:i="http://ns.adobe.com/AdobeIllustrator/10.0/" xmlns:graph="http://ns.adobe.com/Graphs/1.0/" xmlns="http://www.w3.org/2000/svg" xmlns:xlink="http://www.w3.org/1999/xlink" version="1.1" x="0" y="0" viewBox="2.3 6.3999999999999995 95.4 87.30000000000001" enable-background="new 0 0 100 100" xml:space="preserve" height="55.855893674099484" width="61.03839927272726" class="icon-icon-0" data-fill-palette-color="accent" id="icon-0"><g fill="#ed2647" data-fill-palette-color="accent"><g fill="#ed2647" data-fill-palette-color="accent"><path d="M10 75.9h31.4v8.6h-6.1c-1 0-1.9 0.8-1.9 1.9v5.4c0 1 0.8 1.9 1.9 1.9h29.5c1 0 1.9-0.8 1.9-1.9v-5.4c0-1-0.8-1.9-1.9-1.9h-6.1v-8.6H90c4.3 0 7.7-3.5 7.7-7.7V14.1c0-4.3-3.5-7.7-7.7-7.7H10c-4.3 0-7.7 3.5-7.7 7.7v54.1C2.3 72.5 5.7 75.9 10 75.9zM12.8 16.9h74.5v48.4H12.8V16.9zM50 22.7c-10.2 0-18.4 8.3-18.4 18.4 0 10.2 8.3 18.4 18.4 18.4s18.4-8.3 18.4-18.4C68.4 31 60.2 22.7 50 22.7zM44.6 28.5c-1.1 1.6-2.2 3.5-3 6H38C39.5 31.8 41.8 29.7 44.6 28.5zM36.8 45c-0.4-1.2-0.6-2.5-0.6-3.9s0.2-2.7 0.6-3.9H41c-0.2 1.2-0.3 2.5-0.3 3.9s0.1 2.7 0.3 3.9H36.8zM38 47.8h3.6c0.7 2.4 1.8 4.4 3 6C41.8 52.5 39.5 50.4 38 47.8zM48.6 54.3c-1.3-1.3-3-3.5-4.1-6.5h4.1V54.3zM48.6 45h-4.8c-0.2-1.2-0.4-2.5-0.4-3.9 0-1.4 0.1-2.7 0.4-3.9h4.9V45zM48.6 34.5h-4.1c1.1-3 2.8-5.2 4.1-6.5V34.5zM62 34.5h-3.6c-0.7-2.4-1.8-4.4-3-6C58.2 29.7 60.5 31.8 62 34.5zM51.4 28c1.3 1.3 3 3.5 4.1 6.5h-4.1V28zM51.4 37.2h4.8c0.2 1.2 0.4 2.5 0.4 3.9 0 1.4-0.1 2.7-0.4 3.9h-4.9V37.2zM51.4 47.8h4.1c-1.1 3-2.8 5.2-4.1 6.5V47.8zM55.4 53.7c1.1-1.6 2.2-3.5 3-6H62C60.5 50.4 58.2 52.5 55.4 53.7zM63.7 41.1c0 1.4-0.2 2.7-0.6 3.9H59c0.2-1.2 0.3-2.5 0.3-3.9s-0.1-2.7-0.3-3.9h4.1C63.5 38.5 63.7 39.8 63.7 41.1z" fill="#ed2647" data-fill-palette-color="accent"></path></g></g></svg><g></g></g></svg></g></svg></g></svg></g></svg></g><defs></defs></svg><rect width="395.52" height="247.2" fill="none" stroke="none" visibility="hidden"></rect></g></svg></g></svg>